<svg width="176" height="180" viewBox="0 0 176 180" fill="none" xmlns="http://www.w3.org/2000/svg">
<path d="M84.4409 153.88C124.171 153.88 156.378 121.556 156.378 81.6839C156.378 41.8112 124.171 9.48804 84.4409 9.48804C44.711 9.48804 12.5035 41.8112 12.5035 81.6839C12.5035 121.556 44.711 153.88 84.4409 153.88Z" fill="#EAEEF9"/>
<g filter="url(#filter0_d_21054_345147)">
<rect x="57.0403" y="10.2489" width="94.4634" height="131.717" rx="4.72995" transform="rotate(12.9195 57.0403 10.2489)" fill="#F7FAFF"/>
</g>
<g filter="url(#filter1_d_21054_345147)">
<rect x="9.94263" y="105.498" width="94.4634" height="131.717" rx="4.72995" transform="rotate(-69.0037 9.94263 105.498)" fill="#D7E1EA"/>
</g>
<g filter="url(#filter2_d_21054_345147)">
<rect x="10.5277" y="62.3802" width="94.4634" height="131.717" rx="4.72995" transform="rotate(-38.1463 10.5277 62.3802)" fill="#EEF3F7"/>
</g>
<path d="M13.6782 39.384C15.5787 38.764 16.6186 36.7152 16.0009 34.8078C15.3832 32.9004 13.3417 31.8568 11.4411 32.4767C9.54059 33.0967 8.50065 35.1455 9.11838 37.0529C9.73611 38.9603 11.7776 40.0039 13.6782 39.384Z" fill="#EAEEF9"/>
<path d="M21.577 27.534C22.8694 27.1124 23.5766 25.7192 23.1565 24.4222C22.7365 23.1252 21.3483 22.4155 20.0559 22.837C18.7635 23.2586 18.0563 24.6518 18.4764 25.9488C18.8965 27.2458 20.2847 27.9555 21.577 27.534Z" fill="#EAEEF9"/>
<path d="M163.94 63.5539C166.182 61.4973 166.339 58.0057 164.29 55.7552C162.24 53.5047 158.761 53.3475 156.519 55.4041C154.276 57.4607 154.12 60.9523 156.169 63.2028C158.218 65.4533 161.697 65.6105 163.94 63.5539Z" fill="#EAEEF9"/>
<path d="M164.355 38.8058C165.299 37.9399 165.365 36.4697 164.502 35.5222C163.64 34.5746 162.175 34.5084 161.231 35.3743C160.286 36.2403 160.22 37.7104 161.083 38.658C161.946 39.6056 163.411 39.6717 164.355 38.8058Z" fill="#EAEEF9"/>
<g filter="url(#filter3_d_21054_345147)">
<path d="M134.952 45.7597L136.079 138.239C136.079 141.35 133.543 143.895 130.443 143.895H40.6904C37.5906 143.895 35.0544 141.35 35.0544 138.239V19.3169C35.0544 16.2059 37.5906 13.6606 40.6904 13.6606H105.786L134.952 45.7597Z" fill="white"/>
</g>
<path d="M78.7331 125.512H75.4925C74.788 125.512 74.2244 124.947 74.2244 124.24C74.2244 123.533 74.788 122.967 75.4925 122.967H78.7331C79.4376 122.967 80.0012 123.533 80.0012 124.24C80.0012 124.947 79.4376 125.512 78.7331 125.512Z" fill="#E3EAF2"/>
<path d="M69.5757 125.512H50.5543C49.8498 125.512 49.2863 124.947 49.2863 124.24C49.2863 123.533 49.8498 122.967 50.5543 122.967H69.5757C70.2802 122.967 70.8438 123.533 70.8438 124.24C70.9847 124.947 70.4211 125.512 69.5757 125.512Z" fill="#E3EAF2"/>
<path d="M94.5145 33.0332H51.5403C50.554 33.0332 49.7086 32.1848 49.7086 31.195C49.7086 30.2051 50.554 29.3567 51.5403 29.3567H94.5145C95.5008 29.3567 96.3462 30.2051 96.3462 31.195C96.3462 32.1848 95.5008 33.0332 94.5145 33.0332Z" fill="#CED7E2"/>
<path d="M67.8846 43.3562H51.5403C50.554 43.3562 49.7086 42.5078 49.7086 41.518C49.7086 40.5281 50.554 39.6797 51.5403 39.6797H68.0255C69.0118 39.6797 69.8572 40.5281 69.8572 41.518C69.8572 42.5078 68.8709 43.3562 67.8846 43.3562Z" fill="#CED7E2"/>
<path d="M105.787 13.8022V39.2552C105.787 42.7903 108.886 45.7598 112.409 45.7598H134.953" fill="#EAEFF4"/>
<path d="M120.863 62.7279H98.4598C98.4598 62.7279 98.4598 62.7279 98.3189 62.7279C98.178 62.7279 98.3189 62.7279 98.178 62.7279H75.0705C75.0705 62.7279 75.0705 62.7279 74.9296 62.7279C74.7887 62.7279 74.9296 62.7279 74.7887 62.7279H53.0903C50.695 62.7279 48.7224 64.7076 48.7224 67.2529V106.564C48.7224 108.967 50.695 111.089 53.0903 111.089H120.722C123.117 111.089 125.09 109.109 125.09 106.564V67.2529C125.231 64.849 123.258 62.7279 120.863 62.7279ZM76.3386 97.5136V88.7465H97.0508V97.5136H76.3386ZM97.0508 100.2V108.26H76.3386V100.2H97.0508ZM97.0508 77.1512V85.9184H76.3386V77.1512H97.0508ZM76.3386 74.4645V65.4146H97.0508V74.4645H76.3386ZM122.554 86.0598H99.7279V77.2926H122.554V86.0598ZM73.6615 86.0598H51.3995V77.2926H73.5206V86.0598H73.6615ZM51.3995 88.7465H73.5206V97.5136H51.3995V88.7465ZM99.7279 88.7465H122.554V97.5136H99.7279V88.7465ZM122.554 67.2529V74.4645H99.7279V65.4146H120.863C121.708 65.4146 122.554 66.263 122.554 67.2529ZM53.0903 65.4146H73.5206V74.4645H51.3995V67.2529C51.3995 66.263 52.2449 65.4146 53.0903 65.4146ZM51.3995 106.564V100.2H73.5206V108.26H53.0903C52.2449 108.26 51.3995 107.553 51.3995 106.564ZM120.863 108.26H99.7279V100.2H122.554V106.564C122.554 107.553 121.708 108.26 120.863 108.26Z" fill="#E3EAF2"/>
<g filter="url(#filter4_d_21054_345147)">
<path d="M149.101 125.837C146.732 137.413 135.245 144.974 123.639 142.493C112.033 140.13 104.454 128.672 106.941 117.095C109.428 105.518 120.797 97.958 132.403 100.439C136.548 101.266 140.337 103.274 143.298 106.345C148.39 111.425 150.522 118.749 149.101 125.837Z" fill="url(#paint0_linear_21054_345147)"/>
</g>
<path d="M117.92 124.507L132.644 140.322L146.823 127.234L132.644 115.237L132.099 122.326L126.646 126.689L117.92 124.507Z" fill="url(#paint1_linear_21054_345147)"/>
<rect x="130.046" y="126.129" width="2.48918" height="2.17999" transform="rotate(-45 130.046 126.129)" fill="url(#paint2_linear_21054_345147)"/>
<path d="M132.093 129.308C131.294 128.509 131.294 127.215 132.093 126.417C132.891 125.619 134.185 125.619 134.984 126.417L139.1 130.533C139.898 131.331 139.898 132.625 139.1 133.424C138.301 134.222 137.007 134.222 136.209 133.424L132.093 129.308Z" fill="url(#paint3_linear_21054_345147)"/>
<circle cx="124.785" cy="118.284" r="8.0921" stroke="url(#paint4_linear_21054_345147)" stroke-width="3"/>
<defs>
<filter id="filter0_d_21054_345147" x="18.1217" y="5.98272" width="140.46" height="168.441" filterUnits="userSpaceOnUse" color-interpolation-filters="sRGB">
<feFlood flood-opacity="0" result="BackgroundImageFix"/>
<feColorMatrix in="SourceAlpha" type="matrix" values="0 0 0 0 0 0 0 0 0 0 0 0 0 0 0 0 0 0 127 0" result="hardAlpha"/>
<feOffset dy="5.20295"/>
<feGaussianBlur stdDeviation="5.20295"/>
<feColorMatrix type="matrix" values="0 0 0 0 0.397708 0 0 0 0 0.47749 0 0 0 0 0.575 0 0 0 0.18 0"/>
<feBlend mode="normal" in2="BackgroundImageFix" result="effect1_dropShadow_21054_345147"/>
<feBlend mode="normal" in="SourceGraphic" in2="effect1_dropShadow_21054_345147" result="shape"/>
</filter>
<filter id="filter1_d_21054_345147" x="0.91613" y="13.4827" width="174.871" height="153.439" filterUnits="userSpaceOnUse" color-interpolation-filters="sRGB">
<feFlood flood-opacity="0" result="BackgroundImageFix"/>
<feColorMatrix in="SourceAlpha" type="matrix" values="0 0 0 0 0 0 0 0 0 0 0 0 0 0 0 0 0 0 127 0" result="hardAlpha"/>
<feOffset dy="5.20295"/>
<feGaussianBlur stdDeviation="5.20295"/>
<feColorMatrix type="matrix" values="0 0 0 0 0.397708 0 0 0 0 0.47749 0 0 0 0 0.575 0 0 0 0.18 0"/>
<feBlend mode="normal" in2="BackgroundImageFix" result="effect1_dropShadow_21054_345147"/>
<feBlend mode="normal" in="SourceGraphic" in2="effect1_dropShadow_21054_345147" result="shape"/>
</filter>
<filter id="filter2_d_21054_345147" x="2.03307" y="0.741146" width="172.636" height="178.923" filterUnits="userSpaceOnUse" color-interpolation-filters="sRGB">
<feFlood flood-opacity="0" result="BackgroundImageFix"/>
<feColorMatrix in="SourceAlpha" type="matrix" values="0 0 0 0 0 0 0 0 0 0 0 0 0 0 0 0 0 0 127 0" result="hardAlpha"/>
<feOffset dy="5.20295"/>
<feGaussianBlur stdDeviation="5.20295"/>
<feColorMatrix type="matrix" values="0 0 0 0 0.397708 0 0 0 0 0.47749 0 0 0 0 0.575 0 0 0 0.18 0"/>
<feBlend mode="normal" in2="BackgroundImageFix" result="effect1_dropShadow_21054_345147"/>
<feBlend mode="normal" in="SourceGraphic" in2="effect1_dropShadow_21054_345147" result="shape"/>
</filter>
<filter id="filter3_d_21054_345147" x="13.6387" y="2.95278" width="143.856" height="173.066" filterUnits="userSpaceOnUse" color-interpolation-filters="sRGB">
<feFlood flood-opacity="0" result="BackgroundImageFix"/>
<feColorMatrix in="SourceAlpha" type="matrix" values="0 0 0 0 0 0 0 0 0 0 0 0 0 0 0 0 0 0 127 0" result="hardAlpha"/>
<feOffset dy="10.7079"/>
<feGaussianBlur stdDeviation="10.7079"/>
<feColorMatrix type="matrix" values="0 0 0 0 0.397708 0 0 0 0 0.47749 0 0 0 0 0.575 0 0 0 0.18 0"/>
<feBlend mode="normal" in2="BackgroundImageFix" result="effect1_dropShadow_21054_345147"/>
<feBlend mode="normal" in="SourceGraphic" in2="effect1_dropShadow_21054_345147" result="shape"/>
</filter>
<filter id="filter4_d_21054_345147" x="101.245" y="98.0087" width="53.509" height="53.4421" filterUnits="userSpaceOnUse" color-interpolation-filters="sRGB">
<feFlood flood-opacity="0" result="BackgroundImageFix"/>
<feColorMatrix in="SourceAlpha" type="matrix" values="0 0 0 0 0 0 0 0 0 0 0 0 0 0 0 0 0 0 127 0" result="hardAlpha"/>
<feOffset dy="3.26389"/>
<feGaussianBlur stdDeviation="2.61111"/>
<feColorMatrix type="matrix" values="0 0 0 0 0.1125 0 0 0 0 0.295916 0 0 0 0 1 0 0 0 0.22 0"/>
<feBlend mode="normal" in2="BackgroundImageFix" result="effect1_dropShadow_21054_345147"/>
<feBlend mode="normal" in="SourceGraphic" in2="effect1_dropShadow_21054_345147" result="shape"/>
</filter>
<linearGradient id="paint0_linear_21054_345147" x1="106.543" y1="121.372" x2="149.526" y2="121.372" gradientUnits="userSpaceOnUse">
<stop stop-color="#83A6FF"/>
<stop offset="1" stop-color="#5A78FF"/>
</linearGradient>
<linearGradient id="paint1_linear_21054_345147" x1="119.822" y1="129.496" x2="124.874" y2="139.185" gradientUnits="userSpaceOnUse">
<stop stop-color="#506BFF"/>
<stop offset="1" stop-color="#657EFF" stop-opacity="0.26"/>
</linearGradient>
<linearGradient id="paint2_linear_21054_345147" x1="132.381" y1="128.144" x2="130.159" y2="126.416" gradientUnits="userSpaceOnUse">
<stop offset="0.0113208" stop-color="#C2D1FF"/>
<stop offset="1" stop-color="white"/>
</linearGradient>
<linearGradient id="paint3_linear_21054_345147" x1="139.834" y1="131.624" x2="134.918" y2="134.383" gradientUnits="userSpaceOnUse">
<stop offset="0.0113208" stop-color="#C2D1FF"/>
<stop offset="1" stop-color="white"/>
</linearGradient>
<linearGradient id="paint4_linear_21054_345147" x1="133.196" y1="126.419" x2="114.423" y2="113.633" gradientUnits="userSpaceOnUse">
<stop offset="0.0113208" stop-color="#C2D1FF"/>
<stop offset="1" stop-color="white"/>
</linearGradient>
</defs>
</svg>